<svg width="1024" height="1024" viewBox="0 0 1024 1024" fill="none" xmlns="http://www.w3.org/2000/svg">
  <!-- Background -->
  <rect width="1024" height="1024" rx="180" fill="url(#gradient)"/>
  
  <!-- Music Note -->
  <path d="M400 200 L600 160 L600 480 Q600 520 560 520 Q520 520 520 480 Q520 440 560 440 Q600 440 600 480 L600 280 L400 320 L400 600 Q400 640 360 640 Q320 640 320 600 Q320 560 360 560 Q400 560 400 600 Z" fill="white"/>
  
  <!-- Mood Face Circle -->
  <circle cx="720" cy="300" r="80" fill="rgba(255,255,255,0.2)"/>
  
  <!-- Happy Face -->
  <circle cx="700" cy="280" r="8" fill="white"/>
  <circle cx="740" cy="280" r="8" fill="white"/>
  <path d="M690 320 Q720 340 750 320" stroke="white" stroke-width="6" stroke-linecap="round" fill="none"/>
  
  <!-- Sound Waves -->
  <path d="M650 400 Q680 420 650 440" stroke="white" stroke-width="4" stroke-linecap="round" fill="none"/>
  <path d="M670 380 Q710 410 670 460" stroke="white" stroke-width="4" stroke-linecap="round" fill="none"/>
  <path d="M690 360 Q740 400 690 480" stroke="white" stroke-width="4" stroke-linecap="round" fill="none"/>
  
  <!-- Gradient Definition -->
  <defs>
    <linearGradient id="gradient" x1="0%" y1="0%" x2="100%" y2="100%">
      <stop offset="0%" style="stop-color:#6366f1;stop-opacity:1" />
      <stop offset="100%" style="stop-color:#8b5cf6;stop-opacity:1" />
    </linearGradient>
  </defs>
</svg>