<svg width="432" height="432" viewBox="0 0 432 432" xmlns="http://www.w3.org/2000/svg">
  <defs>
    <linearGradient id="iconGrad" x1="0%" y1="0%" x2="100%" y2="100%">
      <stop offset="0%" style="stop-color:#ff6b6b;stop-opacity:1" />
      <stop offset="50%" style="stop-color:#4ecdc4;stop-opacity:1" />
      <stop offset="100%" style="stop-color:#ffd93d;stop-opacity:1" />
    </linearGradient>
  </defs>
  
  <!-- Background -->
  <rect width="432" height="432" fill="#1a1a2e"/>
  
  <!-- Main Icon -->
  <g transform="translate(216, 180) scale(0.8)">
    <!-- Temple Structure -->
    <rect x="-120" y="80" width="240" height="120" fill="#8B4513" stroke="#654321" stroke-width="2"/>
    <polygon points="0,-80 -120,80 120,80" fill="#CD853F" stroke="#654321" stroke-width="2"/>
    
    <!-- Temple Columns -->
    <rect x="-90" y="20" width="15" height="80" fill="#654321"/>
    <rect x="-45" y="20" width="15" height="80" fill="#654321"/>
    <rect x="0" y="20" width="15" height="80" fill="#654321"/>
    <rect x="45" y="20" width="15" height="80" fill="#654321"/>
    <rect x="75" y="20" width="15" height="80" fill="#654321"/>
    
    <!-- Temple Door -->
    <rect x="-25" y="40" width="50" height="60" fill="#2c2c54" stroke="#1a1a2e" stroke-width="2"/>
    
    <!-- Running Character -->
    <circle cx="-60" cy="0" r="12" fill="#ff6b6b"/>
    <rect x="-70" y="12" width="20" height="30" fill="#ff6b6b" rx="2"/>
    <rect x="-72" y="42" width="10" height="20" fill="#ff6b6b" rx="1"/>
    <rect x="-58" y="42" width="10" height="20" fill="#ff6b6b" rx="1"/>
    <rect x="-75" y="15" width="12" height="4" fill="#ff6b6b" rx="2"/>
    <rect x="-58" y="18" width="12" height="4" fill="#ff6b6b" rx="2"/>
    
    <!-- Motion Lines -->
    <line x1="-100" y1="5" x2="-80" y2="5" stroke="#fff" stroke-width="2" opacity="0.7"/>
    <line x1="-105" y1="15" x2="-85" y2="15" stroke="#fff" stroke-width="2" opacity="0.5"/>
    
    <!-- Coins -->
    <circle cx="40" cy="-20" r="8" fill="#ffd93d" stroke="#ff6b6b" stroke-width="1"/>
    <circle cx="65" cy="-35" r="8" fill="#ffd93d" stroke="#ff6b6b" stroke-width="1"/>
  </g>
  
  <!-- App Name -->
  <text x="216" y="350" font-family="Arial, sans-serif" font-size="24" font-weight="bold" text-anchor="middle" fill="#fff">
    TEMPLE RUNNER
  </text>
</svg>