<svg width="432" height="432" viewBox="0 0 432 432" fill="none" xmlns="http://www.w3.org/2000/svg">
  <!-- Foreground for Android Adaptive Icon -->
  <g transform="translate(86, 86)">
    <!-- Music Note -->
    <path d="M80 40 L200 20 L200 160 Q200 180 180 180 Q160 180 160 160 Q160 140 180 140 Q200 140 200 160 L200 100 L80 120 L80 200 Q80 220 60 220 Q40 220 40 200 Q40 180 60 180 Q80 180 80 200 Z" fill="#6366f1"/>
    
    <!-- Mood Face -->
    <circle cx="230" cy="80" r="30" fill="rgba(99, 102, 241, 0.2)" stroke="#6366f1" stroke-width="2"/>
    <circle cx="220" cy="70" r="3" fill="#6366f1"/>
    <circle cx="240" cy="70" r="3" fill="#6366f1"/>
    <path d="M215 90 Q230 100 245 90" stroke="#6366f1" stroke-width="3" stroke-linecap="round" fill="none"/>
    
    <!-- Sound Waves -->
    <path d="M260 100 Q280 110 260 120" stroke="#6366f1" stroke-width="2" stroke-linecap="round" fill="none"/>
    <path d="M270 90 Q300 105 270 130" stroke="#6366f1" stroke-width="2" stroke-linecap="round" fill="none"/>
  </g>
</svg>