<svg width="1080" height="1920" viewBox="0 0 1080 1920" xmlns="http://www.w3.org/2000/svg">
  <defs>
    <linearGradient id="bgGrad" x1="0%" y1="0%" x2="100%" y2="100%">
      <stop offset="0%" style="stop-color:#1a1a2e;stop-opacity:1" />
      <stop offset="50%" style="stop-color:#16213e;stop-opacity:1" />
      <stop offset="100%" style="stop-color:#0f3460;stop-opacity:1" />
    </linearGradient>
    <linearGradient id="titleGrad" x1="0%" y1="0%" x2="100%" y2="100%">
      <stop offset="0%" style="stop-color:#ff6b6b;stop-opacity:1" />
      <stop offset="50%" style="stop-color:#4ecdc4;stop-opacity:1" />
      <stop offset="100%" style="stop-color:#ffd93d;stop-opacity:1" />
    </linearGradient>
  </defs>
  
  <!-- Background -->
  <rect width="1080" height="1920" fill="url(#bgGrad)"/>
  
  <!-- Background Pattern -->
  <circle cx="200" cy="300" r="100" fill="#ff6b6b" opacity="0.1"/>
  <circle cx="880" cy="500" r="80" fill="#4ecdc4" opacity="0.1"/>
  <circle cx="150" cy="800" r="60" fill="#ffd93d" opacity="0.1"/>
  <circle cx="900" cy="1200" r="120" fill="#ff6b6b" opacity="0.1"/>
  <circle cx="300" cy="1500" r="90" fill="#4ecdc4" opacity="0.1"/>
  
  <!-- Main Temple Icon -->
  <g transform="translate(540, 700) scale(1.5)">
    <!-- Temple Structure -->
    <rect x="-200" y="50" width="400" height="200" fill="#8B4513" stroke="#654321" stroke-width="3"/>
    <polygon points="0,-150 -200,50 200,50" fill="#CD853F" stroke="#654321" stroke-width="3"/>
    
    <!-- Temple Columns -->
    <rect x="-150" y="-25" width="25" height="125" fill="#654321"/>
    <rect x="-75" y="-25" width="25" height="125" fill="#654321"/>
    <rect x="0" y="-25" width="25" height="125" fill="#654321"/>
    <rect x="75" y="-25" width="25" height="125" fill="#654321"/>
    <rect x="125" y="-25" width="25" height="125" fill="#654321"/>
    
    <!-- Temple Door -->
    <rect x="-40" y="0" width="80" height="100" fill="#2c2c54" stroke="#1a1a2e" stroke-width="2"/>
    
    <!-- Running Character -->
    <circle cx="-80" cy="-50" r="20" fill="#ff6b6b"/>
    <rect x="-95" y="-30" width="30" height="45" fill="#ff6b6b" rx="3"/>
    <rect x="-100" y="15" width="15" height="30" fill="#ff6b6b" rx="2"/>
    <rect x="-75" y="15" width="15" height="30" fill="#ff6b6b" rx="2"/>
    <rect x="-105" y="-25" width="20" height="6" fill="#ff6b6b" rx="3"/>
    <rect x="-75" y="-20" width="20" height="6" fill="#ff6b6b" rx="3"/>
    
    <!-- Motion Lines -->
    <line x1="-140" y1="-45" x2="-110" y2="-45" stroke="#fff" stroke-width="2" opacity="0.7"/>
    <line x1="-145" y1="-30" x2="-115" y2="-30" stroke="#fff" stroke-width="2" opacity="0.5"/>
    <line x1="-150" y1="-15" x2="-120" y2="-15" stroke="#fff" stroke-width="2" opacity="0.3"/>
    
    <!-- Floating Coins -->
    <circle cx="60" cy="-80" r="12" fill="#ffd93d" stroke="#ff6b6b" stroke-width="2"/>
    <circle cx="100" cy="-100" r="12" fill="#ffd93d" stroke="#ff6b6b" stroke-width="2"/>
    <circle cx="140" cy="-60" r="12" fill="#ffd93d" stroke="#ff6b6b" stroke-width="2"/>
  </g>
  
  <!-- Game Title -->
  <text x="540" y="400" font-family="Arial, sans-serif" font-size="150" font-weight="bold" text-anchor="middle" fill="url(#titleGrad)" stroke="#1a1a2e" stroke-width="3">
    BABA
  </text>
  <text x="540" y="520" font-family="Arial, sans-serif" font-size="120" font-weight="bold" text-anchor="middle" fill="url(#titleGrad)" stroke="#1a1a2e" stroke-width="3">
    RUN
  </text>
  
  <!-- Subtitle -->
  <text x="540" y="580" font-family="Arial, sans-serif" font-size="32" text-anchor="middle" fill="#4ecdc4" opacity="0.8">
    Endless Adventure Awaits
  </text>
  
  <!-- Loading Animation Dots -->
  <g transform="translate(540, 1400)">
    <circle cx="-60" cy="0" r="15" fill="#ff6b6b">
      <animate attributeName="opacity" values="0.3;1;0.3" dur="1.5s" repeatCount="indefinite" begin="0s"/>
    </circle>
    <circle cx="0" cy="0" r="15" fill="#4ecdc4">
      <animate attributeName="opacity" values="0.3;1;0.3" dur="1.5s" repeatCount="indefinite" begin="0.5s"/>
    </circle>
    <circle cx="60" cy="0" r="15" fill="#ffd93d">
      <animate attributeName="opacity" values="0.3;1;0.3" dur="1.5s" repeatCount="indefinite" begin="1s"/>
    </circle>
  </g>
  
  <!-- Version Text -->
  <text x="540" y="1800" font-family="Arial, sans-serif" font-size="24" text-anchor="middle" fill="#666">
    Version 1.0.0
  </text>
</svg>